<svg width="16" height="16" viewBox="0 0 16 16" fill="none" xmlns="http://www.w3.org/2000/svg">
<path d="M7.81065 0.318968L0.267277 8.42971C-0.0885461 8.81229 -0.0898695 9.40432 0.264239 9.78849L5.69263 15.6778C5.88196 15.8832 6.14857 16 6.42792 16H14.6367C15.189 16 15.6367 15.5523 15.6367 15V11.5846C15.6367 11.0323 15.189 10.5846 14.6367 10.5846H8.57735C8.27961 10.5846 7.99736 10.4519 7.80738 10.2227L5.20989 7.0883C5.16127 7.02962 5.11951 6.96559 5.08543 6.89743L4.85365 6.43387C4.72304 6.17264 4.76734 5.85789 4.96499 5.64288C5.09826 5.4979 5.28618 5.41538 5.48311 5.41538H14.6367C15.189 5.41538 15.6367 4.96767 15.6367 4.41539V1C15.6367 0.447715 15.189 0 14.6367 0H8.54291C8.26511 0 7.99984 0.115553 7.81065 0.318968Z" fill="#E3CF5E"/>
</svg>
