<svg width="39" height="36" viewBox="0 0 39 36" fill="none" xmlns="http://www.w3.org/2000/svg">
<path fill-rule="evenodd" clip-rule="evenodd" d="M19.2857 0C8.63036 0 0 8.25874 0 18.4553C0 26.6218 5.52053 33.5194 13.1866 35.9647C14.1509 36.1262 14.5125 35.5726 14.5125 35.0881C14.5125 34.6498 14.4884 33.1964 14.4884 31.6508C9.64286 32.5044 8.38929 30.5204 8.00357 29.4823C7.78661 28.9517 6.84643 27.3138 6.02679 26.8755C5.35179 26.5295 4.3875 25.6759 6.00268 25.6528C7.52143 25.6298 8.60625 26.9909 8.96786 27.5445C10.7036 30.3359 13.4759 29.5515 14.5848 29.0671C14.7536 27.8675 15.2598 27.0601 15.8143 26.5987C11.5232 26.1373 7.03929 24.5455 7.03929 17.4864C7.03929 15.4794 7.78661 13.8184 9.01607 12.5265C8.82321 12.0651 8.14821 10.1735 9.20893 7.63588C9.20893 7.63588 10.8241 7.15142 14.5125 9.52754C16.0554 9.1123 17.6946 8.90468 19.3339 8.90468C20.9732 8.90468 22.6125 9.1123 24.1554 9.52754C27.8438 7.12836 29.4589 7.63588 29.4589 7.63588C30.5196 10.1735 29.8446 12.0651 29.6518 12.5265C30.8812 13.8184 31.6286 15.4563 31.6286 17.4864C31.6286 24.5686 27.1205 26.1373 22.8295 26.5987C23.5286 27.1754 24.1312 28.2827 24.1312 30.0129C24.1312 32.4813 24.1071 34.4653 24.1071 35.0881C24.1071 35.5726 24.4688 36.1493 25.433 35.9647C33.0509 33.5194 38.5714 26.5987 38.5714 18.4553C38.5714 8.25874 29.9411 0 19.2857 0Z" fill="#F5F5F5"/>
</svg>
