<svg width="36" height="36" viewBox="0 0 36 36" fill="none" xmlns="http://www.w3.org/2000/svg">
<path d="M11.8446 17.7706C11.8446 14.4993 14.4951 11.8466 17.7655 11.8466C21.0359 11.8466 23.6878 14.4993 23.6878 17.7706C23.6878 21.042 21.0359 23.6946 17.7655 23.6946C14.4951 23.6946 11.8446 21.042 11.8446 17.7706ZM8.64313 17.7706C8.64313 22.8104 12.7272 26.8956 17.7655 26.8956C22.8038 26.8956 26.8879 22.8104 26.8879 17.7706C26.8879 12.7309 22.8038 8.64562 17.7655 8.64562C12.7272 8.64562 8.64313 12.7309 8.64313 17.7706ZM25.1171 8.28381C25.117 8.70558 25.2418 9.11792 25.476 9.4687C25.7101 9.81947 26.0429 10.0929 26.4324 10.2545C26.8219 10.416 27.2505 10.4584 27.6641 10.3763C28.0776 10.2942 28.4576 10.0913 28.7559 9.79316C29.0541 9.49504 29.2573 9.11515 29.3397 8.70153C29.4222 8.2879 29.3801 7.85911 29.2189 7.46939C29.0577 7.07967 28.7846 6.74651 28.4341 6.51205C28.0836 6.27759 27.6715 6.15236 27.2499 6.15219H27.249C26.6838 6.15245 26.1419 6.37709 25.7421 6.77677C25.3424 7.17644 25.1176 7.71847 25.1171 8.28381ZM10.5882 32.2355C8.85617 32.1566 7.91474 31.868 7.28911 31.6242C6.45968 31.3012 5.86787 30.9165 5.24565 30.2949C4.62344 29.6734 4.23828 29.082 3.91679 28.2523C3.67291 27.6268 3.3844 26.6848 3.30566 24.9522C3.21953 23.0791 3.20234 22.5164 3.20234 17.7708C3.20234 13.0252 3.22096 12.464 3.30566 10.5893C3.38454 8.85674 3.67518 7.9166 3.91679 7.28923C4.2397 6.45955 4.62429 5.86758 5.24565 5.24518C5.86702 4.62278 6.45826 4.23751 7.28911 3.91594C7.91446 3.67198 8.85617 3.38339 10.5882 3.30463C12.4609 3.21847 13.0234 3.20127 17.7655 3.20127C22.5076 3.20127 23.0707 3.2199 24.9449 3.30463C26.677 3.38353 27.6168 3.67425 28.244 3.91594C29.0735 4.23751 29.6653 4.62363 30.2875 5.24518C30.9097 5.86672 31.2934 6.45955 31.6163 7.28923C31.8602 7.91475 32.1487 8.85674 32.2275 10.5893C32.3136 12.464 32.3308 13.0252 32.3308 17.7708C32.3308 22.5164 32.3136 23.0775 32.2275 24.9522C32.1486 26.6848 31.8587 27.6265 31.6163 28.2523C31.2934 29.082 30.9088 29.674 30.2875 30.2949C29.6661 30.9159 29.0735 31.3012 28.244 31.6242C27.6187 31.8681 26.677 32.1567 24.9449 32.2355C23.0723 32.3216 22.5097 32.3388 17.7655 32.3388C13.0213 32.3388 12.4603 32.3216 10.5882 32.2355ZM10.4411 0.107619C8.54989 0.193771 7.25756 0.493739 6.12895 0.933029C4.96013 1.38668 3.97066 1.99529 2.9819 2.98276C1.99315 3.97024 1.38628 4.96156 0.93276 6.13072C0.493597 7.26037 0.193715 8.55236 0.107588 10.4442C0.0200395 12.3389 0 12.9447 0 17.7706C0 22.5966 0.0200395 23.2023 0.107588 25.0971C0.193715 26.989 0.493597 28.2809 0.93276 29.4105C1.38628 30.579 1.99329 31.5714 2.9819 32.5585C3.97052 33.5455 4.96013 34.1533 6.12895 34.6082C7.25969 35.0475 8.54989 35.3475 10.4411 35.4336C12.3364 35.5198 12.941 35.5413 17.7655 35.5413C22.59 35.5413 23.1956 35.5212 25.0899 35.4336C26.9812 35.3475 28.2727 35.0475 29.402 34.6082C30.5702 34.1533 31.5603 33.546 32.5491 32.5585C33.5378 31.571 34.1434 30.579 34.5982 29.4105C35.0374 28.2809 35.3387 26.9889 35.4234 25.0971C35.5095 23.2009 35.5296 22.5966 35.5296 17.7706C35.5296 12.9447 35.5095 12.3389 35.4234 10.4442C35.3373 8.55222 35.0374 7.25966 34.5982 6.13072C34.1434 4.96227 33.5363 3.97181 32.5491 2.98276C31.5619 1.99372 30.5702 1.38668 29.4035 0.933029C28.2727 0.493739 26.9811 0.192349 25.0913 0.107619C23.197 0.0214669 22.5915 0 17.7669 0C12.9424 0 12.3364 0.0200453 10.4411 0.107619Z" fill="#F5F5F5"/>
</svg>
