<svg width="28" height="22" viewBox="0 0 28 22" fill="none" xmlns="http://www.w3.org/2000/svg">
<path d="M21.5984 4.64931L21.8609 4.23315L22.3194 4.52465L22.5224 4.67682C23.0124 5.07281 24.0432 6.08481 24.2654 7.76414C24.6557 7.6908 25.0494 7.65414 25.4432 7.65414C26.3777 7.65414 27.006 7.88147 27.363 8.0703L27.5467 8.1748L27.6657 8.2573L28 8.5433L27.8845 8.90997C27.705 9.41263 27.4245 9.86904 27.062 10.2483C26.5545 10.7965 25.662 11.4436 24.2462 11.528L23.9347 11.5371H23.6757C23.0282 13.3283 22.1584 15.3468 20.6971 17.1581C19.8301 18.2344 18.8016 19.1558 17.6521 19.8861C16.2739 20.7426 14.7647 21.343 13.1912 21.6607C12.0642 21.8899 10.9197 22.0036 9.77343 21.9999C7.23588 21.9999 4.99584 21.4719 3.61857 20.5479C2.3883 19.7248 1.44328 18.3809 0.808019 16.5568C0.25208 14.8899 -0.0209646 13.134 0.0012547 11.3685C-0.0016247 11.1421 0.0730771 10.9222 0.211796 10.7486C0.350515 10.575 0.544053 10.4593 0.757268 10.4225L0.87627 10.4133H19.3216L19.4826 10.4005L19.7434 10.3711C20.1914 10.3088 20.8739 10.1695 21.3534 9.87613C20.7794 8.88063 20.6166 7.71647 20.8844 6.47714C20.9965 5.96018 21.173 5.46091 21.4094 4.99215L21.5984 4.64931ZM5.05709 6.93731L5.1271 6.95014C5.15907 6.96267 5.18786 6.98275 5.21123 7.00882C5.23459 7.0349 5.25192 7.06626 5.26185 7.10047L5.27235 7.17381V9.58463L5.26185 9.6598C5.25174 9.6942 5.23415 9.72569 5.21046 9.75177C5.18678 9.77786 5.15764 9.79783 5.12535 9.81013L5.05709 9.82113H2.58605C2.54 9.82048 2.49533 9.8045 2.45852 9.7755C2.42171 9.74649 2.39466 9.70597 2.3813 9.6598L2.36905 9.58646V7.17197L2.3813 7.09864C2.39117 7.06389 2.40865 7.03204 2.43235 7.00563C2.45605 6.97921 2.48531 6.95895 2.5178 6.94647L2.58605 6.93547L5.05709 6.93731ZM8.4644 6.93731L8.53266 6.95014C8.56495 6.96244 8.59409 6.98241 8.61777 7.0085C8.64146 7.03458 8.65905 7.06606 8.66916 7.10047L8.67966 7.17381V9.58463L8.66741 9.6598C8.6573 9.6942 8.63971 9.72569 8.61602 9.75177C8.59234 9.77786 8.5632 9.79783 8.53091 9.81013L8.46265 9.82113H5.99161C5.94562 9.8202 5.90109 9.80411 5.86433 9.77515C5.82757 9.74619 5.80046 9.70582 5.78686 9.6598L5.77461 9.5883V7.17381C5.77423 7.12475 5.78832 7.07677 5.81494 7.03641C5.84156 6.99605 5.87943 6.96529 5.92336 6.94831L5.99161 6.93547L8.4644 6.93731ZM11.9225 6.93731L11.9907 6.95014C12.0227 6.96267 12.0515 6.98275 12.0748 7.00882C12.0982 7.0349 12.1155 7.06626 12.1255 7.10047L12.1377 7.17381V9.58463L12.1255 9.6598C12.1154 9.6942 12.0978 9.72569 12.0741 9.75177C12.0504 9.77786 12.0213 9.79783 11.989 9.81013L11.9207 9.82113H9.44967C9.40362 9.82048 9.35895 9.8045 9.32214 9.7755C9.28533 9.74649 9.25829 9.70597 9.24492 9.6598L9.23442 9.58646V7.17197L9.24492 7.09864C9.25479 7.06389 9.27227 7.03204 9.29597 7.00563C9.31967 6.97921 9.34893 6.95895 9.38142 6.94647L9.44967 6.93547L11.9225 6.93731ZM15.3385 6.93731L15.4068 6.95014C15.4391 6.96244 15.4682 6.98241 15.4919 7.0085C15.5156 7.03458 15.5332 7.06606 15.5433 7.10047L15.5555 7.17381V9.58463C15.5559 9.63369 15.5418 9.68167 15.5152 9.72202C15.4886 9.76238 15.4507 9.79315 15.4068 9.81013L15.3368 9.82113H12.8675C12.8214 9.82048 12.7768 9.8045 12.74 9.7755C12.7031 9.74649 12.6761 9.70597 12.6627 9.6598L12.6522 9.58646V7.17197L12.6627 7.09864C12.6726 7.06389 12.6901 7.03204 12.7138 7.00563C12.7375 6.97921 12.7667 6.95895 12.7992 6.94647L12.8692 6.93547H15.3403L15.3385 6.93731ZM18.7861 6.93731L18.8543 6.95014C18.8866 6.96244 18.9158 6.98241 18.9395 7.0085C18.9631 7.03458 18.9807 7.06606 18.9908 7.10047L19.0013 7.17381V9.58463C19.0017 9.63369 18.9876 9.68167 18.961 9.72202C18.9344 9.76238 18.8965 9.79315 18.8526 9.81013L18.7843 9.82113H16.3133C16.2672 9.82048 16.2226 9.8045 16.1858 9.7755C16.149 9.74649 16.1219 9.70597 16.1085 9.6598L16.098 9.58646V7.17197L16.1085 7.09864C16.1184 7.06389 16.1359 7.03204 16.1596 7.00563C16.1833 6.97921 16.2126 6.95895 16.245 6.94647L16.315 6.93547H18.7843L18.7861 6.93731ZM8.4609 3.46865L8.53091 3.48149C8.56269 3.49383 8.59136 3.51363 8.61471 3.53937C8.63807 3.56511 8.65549 3.59611 8.66566 3.62999L8.67791 3.70515V6.11598C8.67828 6.16503 8.6642 6.21301 8.63757 6.25337C8.61095 6.29373 8.57309 6.3245 8.52916 6.34148L8.4609 6.35431H5.99161C5.94518 6.35314 5.90031 6.33652 5.8635 6.30685C5.82669 6.27719 5.79985 6.23602 5.78686 6.18931L5.77461 6.11598V3.70515C5.77459 3.65641 5.78885 3.60883 5.81545 3.56884C5.84204 3.52885 5.87971 3.49836 5.92336 3.48149L5.99161 3.46865H8.4609ZM11.919 3.46865L11.989 3.48149C12.0208 3.49383 12.0494 3.51363 12.0728 3.53937C12.0961 3.56511 12.1136 3.59611 12.1237 3.62999L12.136 3.70515V6.11598C12.1363 6.16503 12.1223 6.21301 12.0956 6.25337C12.069 6.29373 12.0311 6.3245 11.9872 6.34148L11.919 6.35431H9.44967C9.40324 6.35314 9.35837 6.33652 9.32156 6.30685C9.28475 6.27719 9.25791 6.23602 9.24492 6.18931L9.23442 6.11598V3.70515L9.24492 3.63182C9.25503 3.59741 9.27262 3.56593 9.2963 3.53984C9.31999 3.51376 9.34912 3.49378 9.38142 3.48149L9.44967 3.46865H11.919ZM15.3368 3.46865C15.4313 3.46865 15.5118 3.53649 15.5415 3.62999L15.5538 3.70515V6.11598C15.5542 6.16503 15.5401 6.21301 15.5134 6.25337C15.4868 6.29373 15.449 6.3245 15.405 6.34148L15.335 6.35431H12.8675C12.8211 6.35314 12.7762 6.33652 12.7394 6.30685C12.7026 6.27719 12.6757 6.23602 12.6627 6.18931L12.6522 6.11598V3.70515L12.6627 3.63182C12.6728 3.59741 12.6904 3.56593 12.7141 3.53984C12.7378 3.51376 12.7669 3.49378 12.7992 3.48149L12.8692 3.46865H15.3403H15.3368ZM15.3368 0C15.4313 0 15.5118 0.0678332 15.5415 0.161333L15.5538 0.234666V2.64732C15.5542 2.69638 15.5401 2.74436 15.5134 2.78472C15.4868 2.82507 15.449 2.85584 15.405 2.87282L15.335 2.88382H12.8675C12.8214 2.88318 12.7768 2.86719 12.74 2.83819C12.7031 2.80919 12.6761 2.76866 12.6627 2.72249L12.6522 2.64916V0.234666L12.6627 0.161333C12.6728 0.126925 12.6904 0.0954418 12.7141 0.0693571C12.7378 0.0432725 12.7669 0.023297 12.7992 0.011L12.8675 0H15.3385H15.3368Z" fill="#2396ED"/>
</svg>
