<svg width="35" height="53" viewBox="0 0 35 53" fill="none" xmlns="http://www.w3.org/2000/svg">
<path d="M17.0625 26.2502C17.0625 21.4165 20.8837 17.5015 25.5937 17.5015C30.3075 17.5015 34.125 21.4127 34.125 26.2502C34.125 31.084 30.3075 34.999 25.5937 34.999C20.8875 34.999 17.0625 31.0877 17.0625 26.2502Z" fill="#1ABCFE"/>
<path d="M0 43.751C0 38.9173 3.82125 34.9985 8.53125 34.9985H17.0625V43.751C17.0625 48.581 13.2412 52.4998 8.53125 52.4998C3.82125 52.4998 0 48.581 0 43.751Z" fill="#0ACF83"/>
<path d="M17.0625 0V17.5012H25.5937C30.3075 17.5012 34.125 13.5825 34.125 8.74875C34.125 3.91875 30.3075 0 25.5937 0H17.0625Z" fill="#FF7262"/>
<path d="M0 8.74875C0 13.5825 3.82125 17.5012 8.53125 17.5012H17.0625V0H8.53125C3.82125 0 0 3.91875 0 8.74875Z" fill="#F24E1E"/>
<path d="M0 26.2502C0 31.084 3.82125 34.999 8.53125 34.999H17.0625V17.5015H8.53125C3.82125 17.5015 0 21.4127 0 26.2502Z" fill="#A259FF"/>
</svg>
