<svg width="29" height="65" viewBox="0 0 29 65" fill="none" xmlns="http://www.w3.org/2000/svg">
<path d="M15.9007 64.3865L14.1738 63.8139C14.1738 63.8139 14.4037 55.0757 11.2419 54.4618C9.1723 52.0518 11.5477 -48.4215 19.1132 54.1191C17.6778 54.8472 16.5794 56.1021 16.0479 57.6212C15.763 59.865 15.7137 62.1325 15.9007 64.3865Z" fill="url(#paint0_linear_238_73)"/>
<path d="M16.8337 55.9459C21.4318 52.4845 24.9531 47.7893 26.9885 42.4059C29.0237 37.0225 29.4894 31.1722 28.3314 25.5346C24.951 10.6221 16.9464 5.71951 16.084 3.8477C15.3401 2.68214 14.705 1.45052 14.187 0.168457L14.8239 41.7186C14.8239 41.7186 13.504 54.4166 16.8337 55.9459Z" fill="url(#paint1_linear_238_73)"/>
<path d="M13.2953 56.4971C13.2953 56.4971 -0.780038 46.9104 0.0339952 29.9514C0.109932 24.8387 1.28219 19.8018 3.47159 15.1811C5.66098 10.5603 8.81654 6.46316 12.725 3.16646C13.1819 2.77839 13.5448 2.29189 13.7865 1.74346C14.0282 1.19503 14.1425 0.598954 14.1209 0C14.997 1.88561 14.8545 28.1531 14.9464 31.2253C15.3028 43.1759 14.2818 54.2413 13.2953 56.4971Z" fill="url(#paint2_linear_238_73)"/>
<defs>
<linearGradient id="paint0_linear_238_73" x1="4.29189" y1="32.7732" x2="24.1406" y2="39.5088" gradientUnits="userSpaceOnUse">
<stop offset="0.231" stop-color="#999875"/>
<stop offset="0.563" stop-color="#9B9977"/>
<stop offset="0.683" stop-color="#A09F7E"/>
<stop offset="0.768" stop-color="#A9A889"/>
<stop offset="0.837" stop-color="#B7B69A"/>
<stop offset="0.896" stop-color="#C9C7B0"/>
<stop offset="0.948" stop-color="#DEDDCB"/>
<stop offset="0.994" stop-color="#F8F6EB"/>
<stop offset="1" stop-color="#FBF9EF"/>
</linearGradient>
<linearGradient id="paint1_linear_238_73" x1="11.57" y1="-0.128445" x2="20.3451" y2="54.6668" gradientUnits="userSpaceOnUse">
<stop stop-color="#48A547"/>
<stop offset="1" stop-color="#3F9143"/>
</linearGradient>
<linearGradient id="paint2_linear_238_73" x1="-1.17677" y1="31.6301" x2="22.3718" y2="23.7436" gradientUnits="userSpaceOnUse">
<stop stop-color="#41A247"/>
<stop offset="0.352" stop-color="#4BA74B"/>
<stop offset="0.956" stop-color="#67B554"/>
<stop offset="1" stop-color="#69B655"/>
</linearGradient>
</defs>
</svg>
