<svg width="65" height="65" viewBox="0 0 65 65" fill="none" xmlns="http://www.w3.org/2000/svg">
<path d="M48.2386 60.9414C47.997 61.0695 48.0172 61.1101 48.2488 60.9922C48.324 60.9618 48.3869 60.9191 48.4418 60.8683C48.4418 60.8257 48.4418 60.8257 48.2386 60.9414ZM48.7261 60.6774C48.6103 60.7728 48.6103 60.7728 48.7484 60.7099C48.8216 60.6672 48.8866 60.6266 48.8866 60.6144C48.8866 60.5595 48.8541 60.5718 48.7261 60.6774ZM49.043 60.4864C48.9272 60.5819 48.9272 60.5819 49.0653 60.5189C49.1405 60.4763 49.2034 60.4316 49.2034 60.4214C49.2034 60.3707 49.1709 60.3808 49.043 60.4864ZM49.364 60.2976C49.2482 60.393 49.2482 60.393 49.3822 60.328C49.4574 60.2874 49.5203 60.2447 49.5203 60.2326C49.5203 60.1818 49.4878 60.1919 49.364 60.2976ZM49.7965 60.0111C49.5752 60.1594 49.498 60.2549 49.7011 60.1493C49.8372 60.0659 50.0688 59.8832 50.0281 59.8832C49.9408 59.9157 49.8677 59.9705 49.7946 60.0111H49.7965ZM30.3723 0.01493C30.224 0.0250865 29.7792 0.0657123 29.3892 0.0982131C20.1514 0.935105 11.5087 5.90771 6.03059 13.5677C3.0021 17.7664 1.03591 22.6435 0.29452 27.7644C0.032499 29.552 0 30.0801 0 32.5033C0 34.9246 0.032499 35.4447 0.29452 37.2322C2.06369 49.4424 10.749 59.6922 22.5218 63.4908C24.6404 64.1671 26.8604 64.6343 29.3892 64.9208C30.3723 65.0264 34.6236 65.0264 35.6067 64.9208C39.9778 64.4333 43.6685 63.3546 47.3205 61.492C47.8812 61.2076 47.9868 61.1324 47.9116 61.0695C46.1241 58.7111 44.3692 56.3507 42.6123 53.97L37.4185 46.9561L30.9127 37.3176C28.7434 34.0919 26.5659 30.8743 24.3539 27.6811C24.3316 27.6811 24.3031 31.9651 24.291 37.1896C24.2686 46.3405 24.2686 46.7123 24.1529 46.9236C24.0371 47.1774 23.8461 47.3886 23.5923 47.5065C23.3911 47.602 23.2104 47.6223 22.2496 47.6223H21.1507L20.8643 47.4436C20.6856 47.3278 20.5374 47.1673 20.4418 46.9784L20.3037 46.6919L20.3139 33.9537L20.3362 21.2155L20.5374 20.9616C20.6653 20.8052 20.8237 20.6772 21.0024 20.5818C21.2686 20.4537 21.3742 20.4335 22.473 20.4335C23.7629 20.4335 23.9761 20.4843 24.3154 20.856C26.9478 24.7804 29.5721 28.7151 32.1537 32.6618C36.3765 39.0645 42.1411 47.8011 44.9746 52.087L50.1277 59.8851L50.3815 59.7166C52.8576 58.0651 55.1101 56.0988 57.054 53.8563C61.1489 49.168 63.8057 43.4012 64.7055 37.2465C64.9675 35.459 65 34.9288 65 32.5075C65 30.0841 64.9675 29.5662 64.7055 27.7786C62.9363 15.5686 54.251 5.31863 42.4782 1.51808C40.2764 0.821352 38.0116 0.346031 35.7184 0.102276C35.103 0.0393055 30.9025 -0.0358522 30.3744 0.0189926L30.3723 0.01493ZM43.6705 19.6718C43.9773 19.818 44.2088 20.0943 44.3144 20.4112C44.3692 20.5818 44.3794 24.1142 44.3692 32.0708L44.3469 43.4947L42.338 40.4072L40.317 37.3176V29.0238C40.317 23.6469 40.3393 20.6325 40.3678 20.4843C40.4633 20.145 40.6949 19.8606 41.0036 19.6818C41.2555 19.5539 41.353 19.5437 42.3584 19.5437C43.2988 19.5437 43.4592 19.5539 43.6705 19.6718Z" fill="black"/>
</svg>
