<svg width="58" height="65" viewBox="0 0 58 65" fill="none" xmlns="http://www.w3.org/2000/svg">
<path d="M29 65C28.0994 65 27.2588 64.7612 26.4782 64.3431L18.4927 59.6256C17.2919 58.9687 17.8924 58.7299 18.2526 58.6105C19.8738 58.073 20.1739 57.9536 21.855 56.9981C22.0352 56.8787 22.2753 56.9385 22.4555 57.0579L28.5797 60.7005C28.8198 60.8199 29.1201 60.8199 29.3002 60.7005L53.2567 46.9063C53.4969 46.7869 53.6169 46.548 53.6169 46.2495V18.7208C53.6169 18.4221 53.4969 18.1833 53.2567 18.0639L29.3002 4.32935C29.0601 4.20992 28.7599 4.20992 28.5797 4.32935L4.62319 18.0639C4.38302 18.1833 4.26294 18.4819 4.26294 18.7208V46.2495C4.26294 46.4883 4.38302 46.7869 4.62319 46.9063L11.1677 50.6684C14.7102 52.4598 16.9317 50.3698 16.9317 48.2797V21.1093C16.9317 20.751 17.2319 20.3928 17.6521 20.3928H20.7143C21.0745 20.3928 21.4348 20.6914 21.4348 21.1093V48.2797C21.4348 52.9972 18.853 55.7441 14.3499 55.7441C12.9689 55.7441 11.8882 55.7441 8.82608 54.2512L2.52174 50.6684C0.960662 49.7727 0 48.1007 0 46.3091V18.7804C0 16.989 0.960662 15.317 2.52174 14.4213L26.4782 0.627013C27.9793 -0.209004 30.0207 -0.209004 31.5218 0.627013L55.4782 14.4213C57.0393 15.317 58 16.989 58 18.7804V46.3091C58 48.1007 57.0393 49.7727 55.4782 50.6684L31.5218 64.4625C30.7412 64.8208 29.8406 65 29 65ZM36.3851 46.0703C25.8779 46.0703 23.7163 41.2931 23.7163 37.2325C23.7163 36.8742 24.0166 36.5158 24.4369 36.5158H27.559C27.9192 36.5158 28.2195 36.7548 28.2195 37.113C28.6998 40.278 30.0808 41.8306 36.4451 41.8306C41.4886 41.8306 43.6501 40.6959 43.6501 38.0087C43.6501 36.4562 43.0497 35.3215 35.1843 34.5452C28.6398 33.8883 24.557 32.4552 24.557 27.26C24.557 22.423 28.6398 19.5567 35.4845 19.5567C43.1698 19.5567 46.9524 22.1842 47.4328 27.9168C47.4328 28.096 47.3727 28.2752 47.2526 28.4543C47.1325 28.5737 46.9524 28.6931 46.7723 28.6931H43.6501C43.3499 28.6931 43.0497 28.4543 42.9896 28.1557C42.2692 24.8714 40.4079 23.7965 35.4845 23.7965C29.9607 23.7965 29.3002 25.7074 29.3002 27.1405C29.3002 28.8723 30.0808 29.4098 37.5259 30.3651C44.911 31.3206 48.3933 32.6941 48.3933 37.8296C48.3334 43.0845 44.0104 46.0703 36.3851 46.0703Z" fill="#539E43"/>
</svg>