<svg width="22" height="22" viewBox="0 0 22 22" fill="none" xmlns="http://www.w3.org/2000/svg">
<path d="M21.2824 13.1785C21.1542 12.7901 20.8182 12.5195 20.3837 12.4545C20.1788 12.424 19.9442 12.437 19.6666 12.4943C19.1826 12.5941 18.8236 12.6321 18.5616 12.6395C19.5506 10.9696 20.3548 9.06537 20.8178 7.27284C21.5664 4.37445 21.1663 3.05404 20.6989 2.45674C19.4617 0.875944 17.6567 0.0266606 15.479 0.000626834C14.3174 -0.013551 13.2975 0.215813 12.7656 0.38071C12.2703 0.293371 11.7376 0.244564 11.1788 0.235524C10.1313 0.218826 9.20578 0.447153 8.41494 0.916452C7.97701 0.76845 7.27439 0.559735 6.4629 0.426504C4.55428 0.11316 3.01607 0.357344 1.89093 1.15219C0.528483 2.1146 -0.103145 3.78669 0.013686 6.12207C0.0507359 6.86356 0.465547 9.11951 1.11861 11.2591C1.49396 12.4888 1.89419 13.51 2.30821 14.2946C2.89533 15.4071 3.52355 16.0623 4.22883 16.2976C4.62418 16.4293 5.34241 16.5215 6.09788 15.8924C6.19362 16.0083 6.32132 16.1236 6.49091 16.2306C6.70619 16.3664 6.96949 16.4773 7.2324 16.5431C8.18004 16.78 9.06766 16.7207 9.82491 16.3887C9.82955 16.5234 9.83316 16.6521 9.83622 16.7632C9.84126 16.9434 9.8462 17.1201 9.85282 17.2854C9.89767 18.4029 9.9737 19.2718 10.199 19.8797C10.2113 19.9132 10.228 19.9641 10.2455 20.0181C10.3579 20.3622 10.5459 20.9382 11.0239 21.3894C11.519 21.8567 12.1179 22 12.6663 22C12.9414 22 13.2038 21.9639 13.434 21.9146C14.2546 21.7388 15.1864 21.4708 15.8605 20.511C16.4979 19.6036 16.8077 18.2369 16.8638 16.0833C16.871 16.0225 16.8777 15.9643 16.8842 15.9089C16.8886 15.8715 16.893 15.8333 16.8975 15.7951L17.0477 15.8083L17.0864 15.8109C17.9221 15.849 18.944 15.6718 19.5716 15.3803C20.0675 15.1501 21.6566 14.3112 21.2824 13.1785Z" fill="black"/>
<path d="M19.8529 13.3988C17.368 13.9113 17.1972 13.07 17.1972 13.07C19.8208 9.17691 20.9176 4.23518 19.9711 3.02572C17.389 -0.273452 12.9192 1.28685 12.8446 1.32735L12.8206 1.33165C12.3296 1.22974 11.7802 1.16903 11.1627 1.15895C10.0383 1.14052 9.18543 1.45372 8.53825 1.94451C8.53825 1.94451 0.564552 -1.34034 0.935397 6.07582C1.01429 7.65356 3.19673 18.0137 5.79986 14.8844C6.7513 13.7402 7.67059 12.7727 7.67059 12.7727C8.12719 13.076 8.6738 13.2307 9.24684 13.1751L9.29135 13.1373C9.27752 13.2794 9.28384 13.4184 9.30918 13.5829C8.63858 14.3321 8.83563 14.4637 7.49507 14.7396C6.13859 15.0192 6.93547 15.5169 7.45575 15.647C8.08648 15.8047 9.54571 16.0281 10.5317 14.6479L10.4924 14.8054C10.7551 15.0158 10.9396 16.1743 10.9087 17.2245C10.8778 18.2746 10.8571 18.9956 11.0642 19.5588C11.2712 20.122 11.4775 21.3891 13.2398 21.0115C14.7124 20.6959 15.4755 19.8781 15.5816 18.514C15.657 17.5443 15.8275 17.6876 15.8382 16.8206L15.975 16.4101C16.1326 15.0956 16 14.6715 16.9072 14.8687L17.1277 14.8881C17.7955 14.9185 18.6694 14.7807 19.1823 14.5423C20.2868 14.0297 20.9418 13.1739 19.8528 13.3988H19.8529Z" fill="#336791"/>
<path d="M9.0059 6.7814C8.78202 6.75023 8.57918 6.77908 8.47658 6.85674C8.41883 6.90046 8.40099 6.95109 8.3962 6.98597C8.38331 7.0783 8.44802 7.18036 8.48774 7.23302C8.60017 7.38206 8.76448 7.48451 8.9271 7.50709C8.95067 7.51035 8.97408 7.51193 8.9974 7.51193C9.2686 7.51193 9.51511 7.30079 9.53685 7.14494C9.56402 6.94976 9.28066 6.81964 9.0059 6.7814Z" fill="#F5F5F5"/>
<path d="M16.4234 6.78757C16.402 6.63458 16.1297 6.59096 15.8713 6.62688C15.6134 6.66284 15.3631 6.77927 15.384 6.93261C15.4008 7.05186 15.6161 7.25544 15.871 7.25539C15.8925 7.25539 15.9142 7.25396 15.9361 7.2509C16.1062 7.22733 16.231 7.11929 16.2903 7.057C16.3807 6.96215 16.4329 6.85634 16.4234 6.78757Z" fill="#F5F5F5"/>
<path d="M20.6801 13.3405C20.5853 13.054 20.2804 12.9618 19.7737 13.0665C18.2693 13.3769 17.7305 13.1618 17.5536 13.0316C18.723 11.2501 19.6849 9.09682 20.2039 7.08768C20.4497 6.13599 20.5855 5.25217 20.5966 4.53182C20.6088 3.74103 20.4742 3.16004 20.1965 2.8051C19.0766 1.37418 17.4331 0.606652 15.4436 0.585558C14.076 0.570195 12.9204 0.920243 12.6964 1.01865C12.2246 0.901323 11.7103 0.829297 11.1504 0.820109C10.1237 0.803511 9.23619 1.04932 8.50137 1.55034C8.18219 1.43158 7.35731 1.14842 6.34862 0.985945C4.6046 0.705106 3.21878 0.917872 2.2298 1.61851C1.04973 2.45456 0.504949 3.949 0.610516 6.06026C0.646035 6.77063 1.05072 8.95574 1.68946 11.0484C2.5302 13.8027 3.44405 15.362 4.40567 15.6827C4.5182 15.7202 4.64802 15.7465 4.79109 15.7465C5.14187 15.7465 5.5719 15.5884 6.01937 15.0505C6.76259 14.1563 7.45651 13.4071 7.7123 13.1348C8.09031 13.3378 8.50552 13.451 8.93031 13.4624C8.93105 13.4735 8.93218 13.4846 8.93317 13.4957C8.84796 13.5968 8.77806 13.6853 8.71848 13.761C8.4242 14.1345 8.36295 14.2123 7.41565 14.4074C7.14623 14.4629 6.43047 14.6104 6.42005 15.1121C6.40864 15.6602 7.26597 15.8904 7.36369 15.9148C7.7041 16 8.03202 16.0421 8.34477 16.0421C9.10543 16.042 9.77475 15.792 10.3097 15.3084C10.2932 17.2624 10.3747 19.1878 10.6093 19.7745C10.8014 20.2547 11.2709 21.4285 12.7537 21.4284C12.9712 21.4284 13.2108 21.4031 13.4742 21.3466C15.0217 21.0148 15.6937 20.3309 15.9537 18.823C16.0928 18.0171 16.3316 16.0927 16.4438 15.0605C16.6808 15.1344 16.9859 15.1682 17.3156 15.1682C18.0035 15.1682 18.7972 15.0221 19.2949 14.791C19.854 14.5314 20.8631 13.8941 20.6801 13.3405ZM16.9948 6.36525C16.9897 6.67 16.9477 6.94664 16.9033 7.23543C16.8554 7.54601 16.8059 7.86711 16.7935 8.25693C16.7812 8.63627 16.8286 9.03068 16.8744 9.41204C16.967 10.1824 17.062 10.9755 16.6942 11.7581C16.637 11.6566 16.5819 11.5458 16.5313 11.4232C16.4856 11.3124 16.3863 11.1344 16.249 10.888C15.7143 9.92916 14.4622 7.68374 15.1031 6.76747C15.294 6.49468 15.7785 6.21434 16.9948 6.36525ZM15.5206 1.20266C17.3031 1.24203 18.7131 1.90888 19.7115 3.18459C20.4772 4.1631 19.634 8.61552 17.1931 12.4566C17.169 12.426 17.1445 12.3951 17.1191 12.3633C17.109 12.3506 17.0986 12.3378 17.0882 12.3247C17.719 11.283 17.5956 10.2524 17.4858 9.33859C17.4407 8.96359 17.3981 8.60939 17.409 8.27673C17.4202 7.92402 17.4668 7.62164 17.5119 7.32919C17.5673 6.96877 17.6237 6.5959 17.6081 6.15629C17.6198 6.1102 17.6244 6.05571 17.6184 5.99105C17.5787 5.56947 17.0974 4.30794 16.1164 3.16596C15.5799 2.54145 14.7973 1.84249 13.7289 1.37107C14.1885 1.27582 14.817 1.187 15.5206 1.20266ZM5.54587 14.6567C5.05291 15.2494 4.71244 15.1359 4.6005 15.0986C3.87101 14.8552 3.02464 13.3135 2.27841 10.8687C1.6327 8.7532 1.25533 6.62599 1.2255 6.02948C1.13119 4.143 1.58849 2.82822 2.58474 2.1217C4.20604 0.971915 6.87166 1.66011 7.94275 2.00917C7.92734 2.02433 7.91133 2.03856 7.89607 2.05397C6.13847 3.82906 6.18016 6.86182 6.18446 7.04717C6.18431 7.1187 6.19029 7.21997 6.19854 7.35928C6.22877 7.86933 6.28504 8.8187 6.13471 9.89384C5.99496 10.8929 6.30292 11.8708 6.9795 12.5767C7.04955 12.6498 7.12266 12.7184 7.1982 12.7829C6.897 13.1055 6.24251 13.8187 5.54587 14.6567ZM7.4241 12.1506C6.87878 11.5817 6.63113 10.7903 6.74456 9.97911C6.90333 8.84335 6.84469 7.85422 6.81322 7.32282C6.80883 7.24847 6.80492 7.18332 6.8026 7.13189C7.05938 6.90426 8.24928 6.26665 9.09782 6.46109C9.48512 6.54981 9.721 6.81346 9.81911 7.26705C10.3268 9.61518 9.88634 10.5939 9.53239 11.3803C9.45943 11.5424 9.39052 11.6955 9.33163 11.854L9.28604 11.9764C9.17054 12.2861 9.06309 12.574 8.9965 12.8475C8.41684 12.8457 7.85289 12.5981 7.4241 12.1506ZM7.51307 15.3174C7.34383 15.2751 7.19158 15.2017 7.10226 15.1408C7.17686 15.1056 7.30964 15.0579 7.5399 15.0105C8.65431 14.781 8.82637 14.6191 9.2022 14.1419C9.28841 14.0326 9.38607 13.9085 9.52133 13.7575L9.52147 13.7573C9.72298 13.5317 9.81511 13.5699 9.98223 13.6392C10.1177 13.6953 10.2496 13.8651 10.3031 14.0519C10.3284 14.1401 10.3568 14.3076 10.2638 14.4379C9.47869 15.5371 8.33469 15.523 7.51307 15.3174ZM13.3451 20.7445C11.9818 21.0366 11.4992 20.341 11.1811 19.5459C10.9758 19.0324 10.8749 16.7174 10.9465 14.1609C10.9474 14.1269 10.9426 14.094 10.9332 14.0631C10.925 14.0035 10.9125 13.9432 10.8951 13.8825C10.7886 13.5105 10.5292 13.1993 10.218 13.0704C10.0943 13.0191 9.86732 12.9251 9.59459 12.9949C9.65278 12.7552 9.75366 12.4847 9.86298 12.1916L9.90887 12.0683C9.96054 11.9294 10.0253 11.7854 10.0939 11.6331C10.4643 10.8102 10.9716 9.6831 10.421 7.13688C10.2148 6.18321 9.52612 5.71752 8.48215 5.82566C7.85625 5.89042 7.28371 6.14295 6.99813 6.28774C6.93672 6.31887 6.88055 6.3489 6.82809 6.3782C6.90777 5.41727 7.20897 3.62153 8.33548 2.48538C9.04472 1.77007 9.98934 1.41681 11.1403 1.43583C13.408 1.47298 14.8622 2.63674 15.6828 3.60651C16.39 4.44221 16.7729 5.28399 16.9258 5.73797C15.7765 5.62114 14.9948 5.84804 14.5986 6.41451C13.7365 7.64674 15.0702 10.0385 15.7111 11.1879C15.8287 11.3986 15.9301 11.5807 15.962 11.658C16.1708 12.1639 16.441 12.5016 16.6383 12.7481C16.6987 12.8237 16.7574 12.8969 16.802 12.9609C16.454 13.0613 15.8287 13.2931 15.8857 14.4521C15.8397 15.0337 15.5129 17.7564 15.3469 18.7184C15.1278 19.9892 14.6601 20.4626 13.3451 20.7445ZM19.0356 14.2325C18.6797 14.3977 18.084 14.5217 17.5181 14.5483C16.8931 14.5775 16.575 14.4783 16.5002 14.4172C16.465 13.695 16.7339 13.6195 17.0184 13.5396C17.0631 13.527 17.1067 13.5148 17.1488 13.5001C17.175 13.5214 17.2036 13.5425 17.235 13.5632C17.7373 13.8948 18.6333 13.9306 19.8982 13.6695C19.9029 13.6685 19.9075 13.6676 19.9121 13.6667C19.7415 13.8262 19.4496 14.0403 19.0356 14.2325Z" fill="#F5F5F5"/>
</svg>
