<svg width="50" height="47" viewBox="0 0 50 47" fill="none" xmlns="http://www.w3.org/2000/svg">
<path d="M34.6447 32.8245C36.4898 32.6353 37.8897 31.0603 37.826 29.1701C37.7625 27.2802 36.1717 25.7681 34.2628 25.7681H34.1357C32.163 25.831 30.6362 27.4692 30.6998 29.4222C30.7635 30.3672 31.1452 31.1862 31.7178 31.7532C29.5545 35.9745 26.2458 39.0615 21.283 41.6447C17.9107 43.4087 14.4113 44.0388 10.9119 43.5979C8.04863 43.2199 5.82168 41.9599 4.42168 39.8805C2.38573 36.7935 2.19492 33.4543 3.91288 30.1153C5.12187 27.7211 7.03047 25.9569 8.23945 25.0749C7.98497 24.2559 7.60312 22.8699 7.4123 21.8619C-1.81368 28.4771 -0.859183 37.4236 1.94043 41.6447C4.04003 44.7949 8.30312 46.748 13.0115 46.748C14.284 46.748 15.5565 46.6218 16.8292 46.3071C24.9735 44.7319 31.1453 39.9436 34.6447 32.8245ZM45.8432 25.0121C41.0075 19.4048 33.8812 16.3178 25.7368 16.3178H24.719C24.1463 15.1837 22.9373 14.4275 21.6012 14.4275H21.4738C19.5015 14.4906 17.9747 16.1286 18.0382 18.0818C18.1018 19.9718 19.6923 21.4839 21.6012 21.4839H21.7283C23.1282 21.4209 24.3372 20.5389 24.8462 19.3417H25.9913C30.8272 19.3417 35.4082 20.7277 39.5442 23.4369C42.7253 25.516 45.016 28.2252 46.2885 31.5013C47.3702 34.1474 47.3065 36.7305 46.1612 38.9356C44.3797 42.2747 41.3893 44.1018 37.4443 44.1018C34.8992 44.1018 32.4815 43.3458 31.2088 42.7787C30.509 43.4087 29.2363 44.4167 28.3455 45.047C31.0817 46.3069 33.8812 47 36.5535 47C42.6617 47 47.1793 43.6607 48.8973 40.3216C50.7423 36.6674 50.615 30.3672 45.8432 25.0121ZM13.5205 33.8952C13.5842 35.7853 15.1748 37.2972 17.0837 37.2972H17.211C19.1833 37.2344 20.7103 35.5963 20.6467 33.6433C20.5832 31.753 18.9923 30.2412 17.0837 30.2412H16.9565C16.8292 30.2412 16.6382 30.2412 16.5112 30.3039C13.9023 26.0199 12.8207 21.3578 13.2025 16.3176C13.4568 12.5374 14.7295 9.26118 16.9565 6.552C18.8015 4.22088 22.3647 3.08686 24.7827 3.02401C31.527 2.89792 34.39 11.2142 34.581 14.5534C35.4082 14.7424 36.808 15.1835 37.7625 15.4986C36.9988 5.29226 30.6362 0 24.5282 0C18.8015 0 13.5205 4.09519 11.4207 10.1434C8.49395 18.2077 10.4027 25.9569 13.9658 32.0683C13.6479 32.5092 13.4568 33.2022 13.5205 33.8952Z" fill="#764ABC"/>
</svg>
