<svg width="51" height="51" viewBox="0 0 51 51" fill="none" xmlns="http://www.w3.org/2000/svg">
<g clip-path="url(#clip0_219_125)">
<path fill-rule="evenodd" clip-rule="evenodd" d="M24.9651 0C29.9028 0 34.7295 1.46418 38.835 4.20738C42.9405 6.95058 46.1403 10.8496 48.0298 15.4114C49.9194 19.9731 50.4138 24.9928 49.4505 29.8355C48.4873 34.6783 46.1096 39.1266 42.6181 42.6181C39.1266 46.1096 34.6783 48.4873 29.8355 49.4505C24.9928 50.4138 19.9731 49.9194 15.4114 48.0298C10.8496 46.1403 6.95058 42.9405 4.20738 38.835C1.46418 34.7295 0 29.9028 0 24.9651C0 18.344 2.63025 11.994 7.31211 7.31211C11.994 2.63025 18.344 0 24.9651 0Z" fill="#CC6699"/>
<path d="M40.6255 10.6851C39.4948 6.25201 32.1426 4.80046 25.1846 7.26488C20.8268 8.72917 16.8008 11.0385 13.3368 14.0608C9.50465 17.645 8.893 20.7657 9.14444 22.0692C10.036 26.6699 16.3362 29.6764 18.9272 31.9073V31.9197C18.164 32.296 12.5718 35.1295 11.2594 38.0183C9.87909 41.0712 11.4787 43.261 12.5397 43.5553C14.1327 43.9387 15.8058 43.814 17.3242 43.1983C18.8427 42.5826 20.1303 41.5071 21.0064 40.1225C21.7305 39.0008 22.1835 37.7258 22.3296 36.3986C22.4757 35.0714 22.3109 33.7285 21.8481 32.4761C23.0961 32.1589 24.3935 32.0845 25.6696 32.2568C30.0492 32.7685 30.9087 35.5022 30.7446 36.647C30.6675 37.0545 30.5034 37.4407 30.2637 37.7792C30.0241 38.1176 29.7142 38.4005 29.3555 38.6086C29.0488 38.7993 28.9542 38.8635 28.981 39.0062C29.0184 39.2113 29.1593 39.2042 29.4215 39.1596C30.0796 38.9523 30.6595 38.5505 31.0848 38.0071C31.5101 37.4638 31.7608 36.8043 31.8039 36.1157C31.9091 33.4408 29.3394 30.4343 24.7886 30.5109C23.467 30.4732 22.148 30.654 20.8851 31.0459C20.8227 30.9746 20.7586 30.9032 20.6926 30.8319C17.8787 27.8308 12.6788 25.707 12.8981 21.6716C12.9784 20.2039 13.4883 16.3415 22.8842 11.6552C30.5877 7.8159 36.7541 8.87334 37.8204 11.2148C39.3433 14.5601 34.525 20.7745 26.5255 21.6716C25.6413 21.851 24.7281 21.8292 23.8536 21.6075C22.979 21.3859 22.1655 20.9702 21.4736 20.3912C21.0528 19.9275 20.9904 19.9079 20.8335 19.9935C20.5784 20.1344 20.7408 20.5446 20.8335 20.7871C21.1397 21.3391 21.5533 21.8244 22.0496 22.2145C22.546 22.6046 23.1153 22.8917 23.724 23.0589C26.8693 23.7423 30.1498 23.4179 33.1003 22.1316C37.9524 20.261 41.7364 15.0451 40.6255 10.6851ZM20.0043 33.2803C20.3584 34.5013 20.3405 35.8001 19.9525 37.0108C19.911 37.1368 19.8651 37.2617 19.8152 37.3853C19.7653 37.509 19.7113 37.6278 19.653 37.742C19.3529 38.356 18.9641 38.9225 18.4992 39.4235C17.0495 41.0052 15.0219 41.6044 14.1535 41.0997C13.2156 40.5558 13.6845 38.3251 15.3661 36.5472C16.6582 35.2695 18.1479 34.2085 19.7778 33.4052L20.0043 33.2803Z" fill="white"/>
</g>
<defs>
<clipPath id="clip0_219_125">
<rect width="50.4057" height="50.4057" fill="white"/>
</clipPath>
</defs>
</svg>
