<svg width="44" height="51" viewBox="0 0 44 51" fill="none" xmlns="http://www.w3.org/2000/svg">
<path fill-rule="evenodd" clip-rule="evenodd" d="M38.0238 9.3196C38.6834 10.2641 39.4309 11.3339 39.4309 11.3339C39.4309 11.3339 43.1269 12.2818 43.3008 12.3287C43.4763 12.3758 43.6667 12.5504 43.6562 12.8029C43.6457 13.0553 42.5132 49.927 42.5132 49.927L29.0351 50.429L38.0238 9.3196ZM36.2767 7.60313C36.175 7.59824 36.0852 7.60246 36.0221 7.60957C35.9884 7.61304 35.4224 7.68409 34.4851 7.80095C34.0645 5.13192 32.9434 2.54781 30.2457 2.06575C30.171 2.05242 30.0928 2.0416 30.0158 2.03259C29.4303 0.875874 28.5591 0.262067 27.738 0.115356C21.4515 -1.00798 17.0362 6.35432 15.3779 10.1984C12.7986 10.5226 10.9671 10.753 10.7336 10.7839C9.29189 10.9702 9.24158 11.0055 8.83276 12.2641C8.52239 13.2181 0.000230818 40.3084 0.000230818 40.3084L26.8645 50.5098L26.8952 50.5086L36.2767 7.60313ZM28.6908 8.25997C28.6736 8.35641 28.6562 8.44492 28.6404 8.53371C27.0244 8.73624 25.2701 8.9567 23.5109 9.17787C25.0945 5.71694 27.161 4.27741 28.813 3.89019C29.0245 4.93266 29.0276 6.37553 28.6908 8.25997ZM27.2616 1.77897C27.5342 1.82769 27.7902 1.96979 28.02 2.19724C25.8345 2.78931 23.2472 4.80392 21.4785 9.43236C20.0716 9.60904 18.6967 9.782 17.4248 9.94174C19.1458 6.47694 22.7466 0.972196 27.2616 1.77897ZM24.5273 23.3351C24.5273 23.3351 23.0564 22.1718 21.0625 21.8155C18.1378 21.2929 17.6604 23.1112 17.5775 23.575C17.1243 26.1116 23.528 28.259 22.4667 34.1986C21.6318 38.8707 18.145 41.3533 14.1678 40.6426C9.39539 39.7898 7.48854 36.3687 7.48854 36.3687L9.52454 32.3551C9.52454 32.3551 11.6466 34.968 13.7639 35.3464C15.1455 35.5933 15.9047 34.5994 16.0475 33.8003C16.6386 30.4922 11.2682 29.3793 12.2396 23.9434C13.0569 19.3693 17.1154 15.526 23.7111 16.7046C26.2519 17.1586 27.3778 18.1149 27.3778 18.1149L24.5273 23.3351ZM30.3802 8.31539C30.41 8.14854 30.4408 7.985 30.4728 7.80589C30.7518 6.24445 30.7603 4.94746 30.5926 3.88911C31.9522 4.31213 32.5941 6.06812 32.8628 8.00388C32.1263 8.09659 31.2887 8.20129 30.3802 8.31539Z" fill="#81BF37"/>
</svg>