<svg width="51" height="33" viewBox="0 0 51 33" fill="none" xmlns="http://www.w3.org/2000/svg">
<g clip-path="url(#clip0_219_128)">
<path d="M12.6014 10.9859C14.2816 3.66196 18.4821 0 25.2029 0C35.284 0 36.5442 8.2394 41.5847 9.61263C44.9451 10.5282 47.8855 9.15489 50.4057 5.49293C48.7255 12.8168 44.5251 16.4788 37.8043 16.4788C27.7232 16.4788 26.463 8.2394 21.4224 6.86617C18.0621 5.95067 15.1217 7.32391 12.6014 10.9859ZM0 27.4647C1.68019 20.1408 5.88067 16.4788 12.6014 16.4788C22.6826 16.4788 23.9427 24.7182 28.9833 26.0914C32.3437 27.007 35.284 25.6337 37.8043 21.9717C36.1241 29.2956 31.9236 32.9576 25.2029 32.9576C15.1217 32.9576 13.8616 24.7182 8.821 23.345C5.46062 22.4294 2.52029 23.8027 0 27.4647Z" fill="#44A8B3"/>
</g>
<defs>
<clipPath id="clip0_219_128">
<rect width="50.4057" height="32.9576" fill="white"/>
</clipPath>
</defs>
</svg>
