<svg width="64" height="64" viewBox="0 0 64 64" fill="none" xmlns="http://www.w3.org/2000/svg">
<path d="M61.0011 0H2.99886C1.34263 0 0 1.34263 0 2.99886V61.0011C0 62.6573 1.34263 64 2.99886 64H61.0011C62.6573 64 64 62.6573 64 61.0011V2.99886C64 1.34263 62.6573 0 61.0011 0Z" fill="#3178C6"/>
<path fill-rule="evenodd" clip-rule="evenodd" d="M36.8465 50.1021V57.2201C38.1078 57.8585 39.452 58.3078 40.8378 58.5543C42.4393 58.8574 44.0649 59.0065 45.6935 58.9997C47.2807 59.0074 48.8642 58.8433 50.4179 58.5101C51.8128 58.2212 53.1436 57.6706 54.3436 56.8861C55.4576 56.1487 56.3758 55.1395 57.0158 53.9489C58.1621 51.4834 58.3133 48.6537 57.4366 46.0745C57.0666 45.1101 56.5155 44.2295 55.8143 43.483C55.0617 42.6891 54.2068 42.0046 53.2733 41.4483C52.1987 40.8029 51.0821 40.2339 49.9314 39.7453C49.0263 39.3602 48.2118 38.9859 47.4877 38.6224C46.8446 38.3067 46.2292 37.9349 45.6483 37.5111C45.1932 37.1839 44.798 36.7772 44.4807 36.3094C44.2066 35.8844 44.0638 35.3848 44.0712 34.8755C44.0651 34.4068 44.1924 33.9463 44.4376 33.5507C44.704 33.1366 45.0592 32.7906 45.4763 32.5392C45.9859 32.2315 46.5406 32.0097 47.1189 31.8826C47.829 31.7208 48.5547 31.643 49.282 31.6506C49.8937 31.6527 50.5046 31.6977 51.1102 31.7851C51.7644 31.8758 52.4116 32.0131 53.0471 32.1958C53.6935 32.3796 54.3257 32.6122 54.9387 32.8918C55.5333 33.1637 56.1022 33.4913 56.6379 33.8709V27.2285C55.5227 26.7959 54.3662 26.4848 53.1874 26.3005C51.7639 26.0881 50.3267 25.988 48.8884 26.0011C47.3161 25.9925 45.7483 26.1755 44.2183 26.5464C42.8352 26.8704 41.5201 27.4465 40.3355 28.247C39.2351 28.9987 38.3265 30.0099 37.6859 31.1959C37.0071 32.5128 36.6711 33.9873 36.7107 35.4763C36.6606 37.4456 37.2932 39.3693 38.496 40.9053C39.9716 42.6085 41.8324 43.9143 43.915 44.708C44.8653 45.1102 45.7516 45.5038 46.5736 45.8889C47.3154 46.2273 48.0283 46.6286 48.7051 47.0884C49.2509 47.4524 49.7303 47.9119 50.1214 48.4457C50.4655 48.9298 50.6479 49.5148 50.6419 50.1138C50.645 50.5626 50.5326 51.0043 50.3161 51.3945C50.0755 51.8137 49.7373 52.1652 49.3319 52.4176C48.8244 52.7348 48.2694 52.9637 47.6891 53.0951C46.9333 53.2683 46.1602 53.3501 45.3858 53.3387C43.8659 53.3358 42.3583 53.0611 40.9306 52.5267C39.439 51.9748 38.0559 51.1537 36.8465 50.1021ZM25.1848 32.3814H34.2354V26.5186H9V32.3814H18.0098V58.4916H25.1848V32.3814Z" fill="white"/>
</svg>
